<svg xmlns="http://www.w3.org/2000/svg" viewBox="0 0 200 200">
  <circle cx="100" cy="100" r="92" fill="#ffffff" stroke="#2f9bd6" stroke-width="7"/>
  <circle cx="100" cy="100" r="72" fill="none" stroke="#2f9bd6" stroke-width="5"/>
  <path id="arcTop" d="M 34,72 A 80,80 0 0,1 166,72" fill="none"/>
  <path id="arcBottom" d="M 46,148 A 72,72 0 0,0 154,148" fill="none"/>
  <text font-family="Arial, Helvetica, sans-serif" font-size="13" font-weight="700" fill="#1c3d5a" letter-spacing="1.5">
    <textPath href="#arcTop" startOffset="50%" text-anchor="middle">PLANEADORES</textPath>
  </text>
  <text font-family="Arial, Helvetica, sans-serif" font-size="13" font-weight="700" fill="#1c3d5a" letter-spacing="1.5">
    <textPath href="#arcBottom" startOffset="50%" text-anchor="middle">LA PLATA</textPath>
  </text>
  <!-- soaring bird silhouette -->
  <g fill="#c9c67a" stroke="#1c3d5a" stroke-width="2.5">
    <path d="M100,88
             C 88,80 55,72 30,86
             C 55,90 78,98 92,108
             L100,118 L108,108
             C 122,98 145,90 170,86
             C 145,72 112,80 100,88 Z"/>
  </g>
  <path d="M92,108 C 90,116 88,124 84,132" fill="none" stroke="#1c3d5a" stroke-width="2"/>
  <path d="M108,108 C 110,116 112,124 116,132" fill="none" stroke="#1c3d5a" stroke-width="2"/>
</svg>
